<mxfile host="app.diagrams.net" agent="Mozilla/5.0 (Macintosh; Intel Mac OS X 10_15_7) AppleWebKit/605.1.15 (KHTML, like Gecko) Version/18.5 Safari/605.1.15" version="27.1.4">
  <diagram name="Page-1" id="mcOuH7iONtjyaMAI37Ni">
    <mxGraphModel dx="2794" dy="3417" grid="1" gridSize="10" guides="1" tooltips="1" connect="1" arrows="1" fold="1" page="1" pageScale="1" pageWidth="827" pageHeight="1169" background="#ffffff" math="0" shadow="0">
      <root>
        <mxCell id="0" />
        <mxCell id="1" parent="0" />
        <mxCell id="HCVNk5icFxSqLN4fO-AM-105" style="edgeStyle=orthogonalEdgeStyle;rounded=0;orthogonalLoop=1;jettySize=auto;html=1;exitX=0.5;exitY=0.5;exitDx=0;exitDy=0;exitPerimeter=0;entryX=0;entryY=0.5;entryDx=0;entryDy=0;endArrow=none;startFill=0;strokeWidth=2;" parent="1" source="HCVNk5icFxSqLN4fO-AM-2" target="HCVNk5icFxSqLN4fO-AM-1" edge="1">
          <mxGeometry relative="1" as="geometry">
            <Array as="points">
              <mxPoint x="100" y="940" />
              <mxPoint x="100" y="440" />
            </Array>
          </mxGeometry>
        </mxCell>
        <mxCell id="HCVNk5icFxSqLN4fO-AM-106" style="edgeStyle=orthogonalEdgeStyle;rounded=0;orthogonalLoop=1;jettySize=auto;html=1;endArrow=none;startFill=0;strokeWidth=2;entryX=0;entryY=0.5;entryDx=0;entryDy=0;exitX=0.5;exitY=0.5;exitDx=0;exitDy=0;exitPerimeter=0;" parent="1" source="HCVNk5icFxSqLN4fO-AM-2" target="HCVNk5icFxSqLN4fO-AM-25" edge="1">
          <mxGeometry relative="1" as="geometry">
            <Array as="points">
              <mxPoint x="100" y="940" />
              <mxPoint x="100" y="1040" />
            </Array>
            <mxPoint x="10" y="880.0000000000002" as="sourcePoint" />
            <mxPoint x="233.99999999999432" y="1250" as="targetPoint" />
          </mxGeometry>
        </mxCell>
        <mxCell id="HCVNk5icFxSqLN4fO-AM-2" value="Usuario" style="shape=umlActor;verticalLabelPosition=bottom;verticalAlign=top;html=1;outlineConnect=0;fontSize=14;spacing=4;spacingRight=4;spacingBottom=4;spacingTop=4;spacingLeft=4;strokeWidth=2;" parent="1" vertex="1">
          <mxGeometry x="20" y="910" width="30" height="60" as="geometry" />
        </mxCell>
        <mxCell id="HCVNk5icFxSqLN4fO-AM-107" style="edgeStyle=orthogonalEdgeStyle;rounded=0;orthogonalLoop=1;jettySize=auto;html=1;exitX=0.5;exitY=0.5;exitDx=0;exitDy=0;exitPerimeter=0;endArrow=none;startFill=0;entryX=0;entryY=0.5;entryDx=0;entryDy=0;strokeWidth=2;" parent="1" source="HCVNk5icFxSqLN4fO-AM-2" target="HCVNk5icFxSqLN4fO-AM-6" edge="1">
          <mxGeometry relative="1" as="geometry">
            <mxPoint x="70" y="1240" as="sourcePoint" />
            <mxPoint x="255" y="810" as="targetPoint" />
            <Array as="points">
              <mxPoint x="100" y="940" />
              <mxPoint x="100" y="1440" />
            </Array>
          </mxGeometry>
        </mxCell>
        <mxCell id="HCVNk5icFxSqLN4fO-AM-108" style="edgeStyle=orthogonalEdgeStyle;rounded=0;orthogonalLoop=1;jettySize=auto;html=1;exitX=0.5;exitY=0.5;exitDx=0;exitDy=0;exitPerimeter=0;entryX=0;entryY=0.5;entryDx=0;entryDy=0;endArrow=none;startFill=0;strokeWidth=2;" parent="1" source="HCVNk5icFxSqLN4fO-AM-2" target="HCVNk5icFxSqLN4fO-AM-26" edge="1">
          <mxGeometry relative="1" as="geometry">
            <mxPoint x="320" y="1390" as="sourcePoint" />
            <mxPoint x="505" y="960" as="targetPoint" />
            <Array as="points">
              <mxPoint x="100" y="940" />
              <mxPoint x="100" y="920" />
            </Array>
          </mxGeometry>
        </mxCell>
        <mxCell id="HCVNk5icFxSqLN4fO-AM-109" style="edgeStyle=orthogonalEdgeStyle;rounded=0;orthogonalLoop=1;jettySize=auto;html=1;exitX=0.5;exitY=0.5;exitDx=0;exitDy=0;exitPerimeter=0;entryX=0.5;entryY=1;entryDx=0;entryDy=0;endArrow=none;startFill=0;strokeWidth=2;" parent="1" source="HCVNk5icFxSqLN4fO-AM-2" target="HCVNk5icFxSqLN4fO-AM-7" edge="1">
          <mxGeometry relative="1" as="geometry">
            <mxPoint x="1050" y="1930" as="sourcePoint" />
            <mxPoint x="1235" y="1500" as="targetPoint" />
            <Array as="points">
              <mxPoint x="100" y="940" />
              <mxPoint x="100" y="1920" />
              <mxPoint x="910" y="1920" />
            </Array>
          </mxGeometry>
        </mxCell>
        <mxCell id="EyWW9Ja4iPk15_HqSt_m-2" value="" style="group" parent="1" vertex="1" connectable="0">
          <mxGeometry x="140" width="1160" height="1880" as="geometry" />
        </mxCell>
        <mxCell id="HCVNk5icFxSqLN4fO-AM-9" value="Eliminar nodos de la red" style="ellipse;whiteSpace=wrap;html=1;fontSize=14;spacing=4;spacingRight=4;spacingBottom=4;spacingTop=4;spacingLeft=4;" parent="EyWW9Ja4iPk15_HqSt_m-2" vertex="1">
          <mxGeometry x="360" y="160" width="160" height="80" as="geometry" />
        </mxCell>
        <mxCell id="HCVNk5icFxSqLN4fO-AM-40" value="kk" style="rounded=0;orthogonalLoop=1;jettySize=auto;html=1;entryX=0;entryY=0.5;entryDx=0;entryDy=0;dashed=1;dashPattern=8 8;exitX=1;exitY=0.5;exitDx=0;exitDy=0;" parent="EyWW9Ja4iPk15_HqSt_m-2" source="HCVNk5icFxSqLN4fO-AM-1" target="HCVNk5icFxSqLN4fO-AM-8" edge="1">
          <mxGeometry relative="1" as="geometry" />
        </mxCell>
        <mxCell id="HCVNk5icFxSqLN4fO-AM-41" value="&amp;lt;&amp;lt;include&amp;gt;&amp;gt;" style="edgeLabel;html=1;align=center;verticalAlign=middle;resizable=0;points=[];" parent="HCVNk5icFxSqLN4fO-AM-40" vertex="1" connectable="0">
          <mxGeometry x="-0.0161" y="-1" relative="1" as="geometry">
            <mxPoint as="offset" />
          </mxGeometry>
        </mxCell>
        <mxCell id="HCVNk5icFxSqLN4fO-AM-1" value="Diseño de red" style="ellipse;whiteSpace=wrap;html=1;fontSize=14;spacing=4;spacingRight=4;spacingBottom=4;spacingTop=4;spacingLeft=4;" parent="EyWW9Ja4iPk15_HqSt_m-2" vertex="1">
          <mxGeometry x="40" y="400" width="160" height="80" as="geometry" />
        </mxCell>
        <mxCell id="HCVNk5icFxSqLN4fO-AM-6" value="Simulación de flujos" style="ellipse;whiteSpace=wrap;html=1;fontSize=14;spacing=4;spacingRight=4;spacingBottom=4;spacingTop=4;spacingLeft=4;" parent="EyWW9Ja4iPk15_HqSt_m-2" vertex="1">
          <mxGeometry x="40" y="1400" width="160" height="80" as="geometry" />
        </mxCell>
        <mxCell id="HCVNk5icFxSqLN4fO-AM-7" value="Análisis de flujos en la red" style="ellipse;whiteSpace=wrap;html=1;fontSize=14;spacing=4;spacingRight=4;spacingBottom=4;spacingTop=4;spacingLeft=4;" parent="EyWW9Ja4iPk15_HqSt_m-2" vertex="1">
          <mxGeometry x="690" y="1579" width="160" height="80" as="geometry" />
        </mxCell>
        <mxCell id="HCVNk5icFxSqLN4fO-AM-8" value="Añadir nodos a la red" style="ellipse;whiteSpace=wrap;html=1;fontSize=14;spacing=4;spacingRight=4;spacingBottom=4;spacingTop=4;spacingLeft=4;" parent="EyWW9Ja4iPk15_HqSt_m-2" vertex="1">
          <mxGeometry x="360" y="40" width="160" height="80" as="geometry" />
        </mxCell>
        <mxCell id="HCVNk5icFxSqLN4fO-AM-10" value="Modificar propiedades del nodo" style="ellipse;whiteSpace=wrap;html=1;fontSize=14;spacing=4;spacingRight=4;spacingBottom=4;spacingTop=4;spacingLeft=4;" parent="EyWW9Ja4iPk15_HqSt_m-2" vertex="1">
          <mxGeometry x="360" y="280" width="160" height="80" as="geometry" />
        </mxCell>
        <mxCell id="HCVNk5icFxSqLN4fO-AM-11" value="Conectar los nodos" style="ellipse;whiteSpace=wrap;html=1;fontSize=14;spacing=4;spacingRight=4;spacingBottom=4;spacingTop=4;spacingLeft=4;" parent="EyWW9Ja4iPk15_HqSt_m-2" vertex="1">
          <mxGeometry x="360" y="400" width="160" height="80" as="geometry" />
        </mxCell>
        <mxCell id="HCVNk5icFxSqLN4fO-AM-12" value="Modificar propiedades de la conexión" style="ellipse;whiteSpace=wrap;html=1;fontSize=14;spacing=4;spacingRight=4;spacingBottom=4;spacingTop=4;spacingLeft=4;" parent="EyWW9Ja4iPk15_HqSt_m-2" vertex="1">
          <mxGeometry x="360" y="520" width="160" height="80" as="geometry" />
        </mxCell>
        <mxCell id="HCVNk5icFxSqLN4fO-AM-13" value="Importar configuración de red" style="ellipse;whiteSpace=wrap;html=1;fontSize=14;spacing=4;spacingRight=4;spacingBottom=4;spacingTop=4;spacingLeft=4;" parent="EyWW9Ja4iPk15_HqSt_m-2" vertex="1">
          <mxGeometry x="360" y="640" width="160" height="80" as="geometry" />
        </mxCell>
        <mxCell id="HCVNk5icFxSqLN4fO-AM-14" value="Guardar configuración de red" style="ellipse;whiteSpace=wrap;html=1;fontSize=14;spacing=4;spacingRight=4;spacingBottom=4;spacingTop=4;spacingLeft=4;" parent="EyWW9Ja4iPk15_HqSt_m-2" vertex="1">
          <mxGeometry x="360" y="760" width="160" height="80" as="geometry" />
        </mxCell>
        <mxCell id="HCVNk5icFxSqLN4fO-AM-15" value="Ejecutar un comando" style="ellipse;whiteSpace=wrap;html=1;fontSize=14;spacing=4;spacingRight=4;spacingBottom=4;spacingTop=4;spacingLeft=4;" parent="EyWW9Ja4iPk15_HqSt_m-2" vertex="1">
          <mxGeometry x="360" y="1119" width="160" height="80" as="geometry" />
        </mxCell>
        <mxCell id="HCVNk5icFxSqLN4fO-AM-16" value="Lanzar un ataque" style="ellipse;whiteSpace=wrap;html=1;fontSize=14;spacing=4;spacingRight=4;spacingBottom=4;spacingTop=4;spacingLeft=4;" parent="EyWW9Ja4iPk15_HqSt_m-2" vertex="1">
          <mxGeometry x="360" y="1279" width="160" height="80" as="geometry" />
        </mxCell>
        <mxCell id="HCVNk5icFxSqLN4fO-AM-17" value="Interceptar flujos" style="ellipse;whiteSpace=wrap;html=1;fontSize=14;spacing=4;spacingRight=4;spacingBottom=4;spacingTop=4;spacingLeft=4;" parent="EyWW9Ja4iPk15_HqSt_m-2" vertex="1">
          <mxGeometry x="360" y="1400" width="160" height="80" as="geometry" />
        </mxCell>
        <mxCell id="HCVNk5icFxSqLN4fO-AM-18" value="Registros de flujos" style="ellipse;whiteSpace=wrap;html=1;fontSize=14;spacing=4;spacingRight=4;spacingBottom=4;spacingTop=4;spacingLeft=4;" parent="EyWW9Ja4iPk15_HqSt_m-2" vertex="1">
          <mxGeometry x="360" y="1519" width="160" height="80" as="geometry" />
        </mxCell>
        <mxCell id="HCVNk5icFxSqLN4fO-AM-19" value="Importar biblioteca de comandos, ataques e interceptores" style="ellipse;whiteSpace=wrap;html=1;fontSize=14;spacing=4;spacingRight=4;spacingBottom=4;spacingTop=4;spacingLeft=4;" parent="EyWW9Ja4iPk15_HqSt_m-2" vertex="1">
          <mxGeometry x="360" y="1639" width="160" height="80" as="geometry" />
        </mxCell>
        <mxCell id="HCVNk5icFxSqLN4fO-AM-20" value="Eliminar biblioteca importada" style="ellipse;whiteSpace=wrap;html=1;fontSize=14;spacing=4;spacingRight=4;spacingBottom=4;spacingTop=4;spacingLeft=4;" parent="EyWW9Ja4iPk15_HqSt_m-2" vertex="1">
          <mxGeometry x="360" y="1759" width="160" height="80" as="geometry" />
        </mxCell>
        <mxCell id="HCVNk5icFxSqLN4fO-AM-21" value="Importar modelo entrenado" style="ellipse;whiteSpace=wrap;html=1;fontSize=14;spacing=4;spacingRight=4;spacingBottom=4;spacingTop=4;spacingLeft=4;" parent="EyWW9Ja4iPk15_HqSt_m-2" vertex="1">
          <mxGeometry x="960" y="1399" width="160" height="80" as="geometry" />
        </mxCell>
        <mxCell id="HCVNk5icFxSqLN4fO-AM-22" value="Eliminar modelos importados" style="ellipse;whiteSpace=wrap;html=1;fontSize=14;spacing=4;spacingRight=4;spacingBottom=4;spacingTop=4;spacingLeft=4;" parent="EyWW9Ja4iPk15_HqSt_m-2" vertex="1">
          <mxGeometry x="960" y="1519" width="160" height="80" as="geometry" />
        </mxCell>
        <mxCell id="HCVNk5icFxSqLN4fO-AM-23" value="Seleccionar modelo de detección" style="ellipse;whiteSpace=wrap;html=1;fontSize=14;spacing=4;spacingRight=4;spacingBottom=4;spacingTop=4;spacingLeft=4;" parent="EyWW9Ja4iPk15_HqSt_m-2" vertex="1">
          <mxGeometry x="960" y="1639" width="160" height="80" as="geometry" />
        </mxCell>
        <mxCell id="HCVNk5icFxSqLN4fO-AM-24" value="Ver predicciones de ataques" style="ellipse;whiteSpace=wrap;html=1;fontSize=14;spacing=4;spacingRight=4;spacingBottom=4;spacingTop=4;spacingLeft=4;" parent="EyWW9Ja4iPk15_HqSt_m-2" vertex="1">
          <mxGeometry x="960" y="1759" width="160" height="80" as="geometry" />
        </mxCell>
        <mxCell id="HCVNk5icFxSqLN4fO-AM-25" value="Configurar el simulador" style="ellipse;whiteSpace=wrap;html=1;fontSize=14;spacing=4;spacingRight=4;spacingBottom=4;spacingTop=4;spacingLeft=4;" parent="EyWW9Ja4iPk15_HqSt_m-2" vertex="1">
          <mxGeometry x="40" y="1000" width="160" height="80" as="geometry" />
        </mxCell>
        <mxCell id="HCVNk5icFxSqLN4fO-AM-26" value="Ejecutar entrenamiento federado" style="ellipse;whiteSpace=wrap;html=1;fontSize=14;spacing=4;spacingRight=4;spacingBottom=4;spacingTop=4;spacingLeft=4;" parent="EyWW9Ja4iPk15_HqSt_m-2" vertex="1">
          <mxGeometry x="360" y="880" width="160" height="80" as="geometry" />
        </mxCell>
        <mxCell id="HCVNk5icFxSqLN4fO-AM-27" value="Cargar configuración del modelo base" style="ellipse;whiteSpace=wrap;html=1;fontSize=14;spacing=4;spacingRight=4;spacingBottom=4;spacingTop=4;spacingLeft=4;" parent="EyWW9Ja4iPk15_HqSt_m-2" vertex="1">
          <mxGeometry x="690" y="520" width="160" height="80" as="geometry" />
        </mxCell>
        <mxCell id="HCVNk5icFxSqLN4fO-AM-28" value="Dividir dataset para entrenamiento federado" style="ellipse;whiteSpace=wrap;html=1;fontSize=14;spacing=4;spacingRight=4;spacingBottom=4;spacingTop=4;spacingLeft=4;" parent="EyWW9Ja4iPk15_HqSt_m-2" vertex="1">
          <mxGeometry x="690" y="640" width="160" height="80" as="geometry" />
        </mxCell>
        <mxCell id="HCVNk5icFxSqLN4fO-AM-29" value="Cargar dataset" style="ellipse;whiteSpace=wrap;html=1;fontSize=14;spacing=4;spacingRight=4;spacingBottom=4;spacingTop=4;spacingLeft=4;" parent="EyWW9Ja4iPk15_HqSt_m-2" vertex="1">
          <mxGeometry x="690" y="760" width="160" height="80" as="geometry" />
        </mxCell>
        <mxCell id="HCVNk5icFxSqLN4fO-AM-30" value="Iniciar servidor federado" style="ellipse;whiteSpace=wrap;html=1;fontSize=14;spacing=4;spacingRight=4;spacingBottom=4;spacingTop=4;spacingLeft=4;" parent="EyWW9Ja4iPk15_HqSt_m-2" vertex="1">
          <mxGeometry x="690" y="880" width="160" height="80" as="geometry" />
        </mxCell>
        <mxCell id="HCVNk5icFxSqLN4fO-AM-31" value="Entrenamiento del modelo global" style="ellipse;whiteSpace=wrap;html=1;fontSize=14;spacing=4;spacingRight=4;spacingBottom=4;spacingTop=4;spacingLeft=4;" parent="EyWW9Ja4iPk15_HqSt_m-2" vertex="1">
          <mxGeometry x="970" y="760" width="160" height="80" as="geometry" />
        </mxCell>
        <mxCell id="HCVNk5icFxSqLN4fO-AM-32" value="Evaluar modelo global" style="ellipse;whiteSpace=wrap;html=1;fontSize=14;spacing=4;spacingRight=4;spacingBottom=4;spacingTop=4;spacingLeft=4;" parent="EyWW9Ja4iPk15_HqSt_m-2" vertex="1">
          <mxGeometry x="970" y="880" width="160" height="80" as="geometry" />
        </mxCell>
        <mxCell id="HCVNk5icFxSqLN4fO-AM-33" value="Exportar modelo global" style="ellipse;whiteSpace=wrap;html=1;fontSize=14;spacing=4;spacingRight=4;spacingBottom=4;spacingTop=4;spacingLeft=4;" parent="EyWW9Ja4iPk15_HqSt_m-2" vertex="1">
          <mxGeometry x="970" y="1000" width="160" height="80" as="geometry" />
        </mxCell>
        <mxCell id="HCVNk5icFxSqLN4fO-AM-34" value="Iniciar cliente federado" style="ellipse;whiteSpace=wrap;html=1;fontSize=14;spacing=4;spacingRight=4;spacingBottom=4;spacingTop=4;spacingLeft=4;" parent="EyWW9Ja4iPk15_HqSt_m-2" vertex="1">
          <mxGeometry x="690" y="1180" width="160" height="80" as="geometry" />
        </mxCell>
        <mxCell id="HCVNk5icFxSqLN4fO-AM-35" value="Entrenar modelo" style="ellipse;whiteSpace=wrap;html=1;fontSize=14;spacing=4;spacingRight=4;spacingBottom=4;spacingTop=4;spacingLeft=4;" parent="EyWW9Ja4iPk15_HqSt_m-2" vertex="1">
          <mxGeometry x="970" y="1120" width="160" height="80" as="geometry" />
        </mxCell>
        <mxCell id="HCVNk5icFxSqLN4fO-AM-36" value="Evaluar modelo" style="ellipse;whiteSpace=wrap;html=1;fontSize=14;spacing=4;spacingRight=4;spacingBottom=4;spacingTop=4;spacingLeft=4;" parent="EyWW9Ja4iPk15_HqSt_m-2" vertex="1">
          <mxGeometry x="970" y="1241" width="160" height="80" as="geometry" />
        </mxCell>
        <mxCell id="HCVNk5icFxSqLN4fO-AM-38" value="Visualizar métricas" style="ellipse;whiteSpace=wrap;html=1;fontSize=14;spacing=4;spacingRight=4;spacingBottom=4;spacingTop=4;spacingLeft=4;" parent="EyWW9Ja4iPk15_HqSt_m-2" vertex="1">
          <mxGeometry x="690" y="1301" width="160" height="80" as="geometry" />
        </mxCell>
        <mxCell id="HCVNk5icFxSqLN4fO-AM-39" value="Proyecto" style="shape=umlFrame;whiteSpace=wrap;html=1;pointerEvents=0;fontSize=14;width=90;height=30;" parent="EyWW9Ja4iPk15_HqSt_m-2" vertex="1">
          <mxGeometry width="1160" height="1880" as="geometry" />
        </mxCell>
        <mxCell id="HCVNk5icFxSqLN4fO-AM-42" style="rounded=0;orthogonalLoop=1;jettySize=auto;html=1;entryX=0;entryY=0.5;entryDx=0;entryDy=0;dashed=1;dashPattern=8 8;exitX=1;exitY=0.5;exitDx=0;exitDy=0;" parent="EyWW9Ja4iPk15_HqSt_m-2" source="HCVNk5icFxSqLN4fO-AM-1" target="HCVNk5icFxSqLN4fO-AM-9" edge="1">
          <mxGeometry relative="1" as="geometry">
            <mxPoint x="310" y="501" as="sourcePoint" />
            <mxPoint x="453" y="180" as="targetPoint" />
          </mxGeometry>
        </mxCell>
        <mxCell id="HCVNk5icFxSqLN4fO-AM-43" value="&amp;lt;&amp;lt;include&amp;gt;&amp;gt;" style="edgeLabel;html=1;align=center;verticalAlign=middle;resizable=0;points=[];" parent="HCVNk5icFxSqLN4fO-AM-42" vertex="1" connectable="0">
          <mxGeometry x="-0.0161" y="-1" relative="1" as="geometry">
            <mxPoint as="offset" />
          </mxGeometry>
        </mxCell>
        <mxCell id="HCVNk5icFxSqLN4fO-AM-44" style="rounded=0;orthogonalLoop=1;jettySize=auto;html=1;dashed=1;dashPattern=8 8;exitX=1;exitY=0.5;exitDx=0;exitDy=0;entryX=0;entryY=0.5;entryDx=0;entryDy=0;" parent="EyWW9Ja4iPk15_HqSt_m-2" source="HCVNk5icFxSqLN4fO-AM-1" target="HCVNk5icFxSqLN4fO-AM-10" edge="1">
          <mxGeometry relative="1" as="geometry">
            <mxPoint x="230" y="610" as="sourcePoint" />
            <mxPoint x="410" y="370" as="targetPoint" />
          </mxGeometry>
        </mxCell>
        <mxCell id="HCVNk5icFxSqLN4fO-AM-45" value="&amp;lt;&amp;lt;include&amp;gt;&amp;gt;" style="edgeLabel;html=1;align=center;verticalAlign=middle;resizable=0;points=[];" parent="HCVNk5icFxSqLN4fO-AM-44" vertex="1" connectable="0">
          <mxGeometry x="-0.0161" y="-1" relative="1" as="geometry">
            <mxPoint as="offset" />
          </mxGeometry>
        </mxCell>
        <mxCell id="HCVNk5icFxSqLN4fO-AM-46" style="rounded=0;orthogonalLoop=1;jettySize=auto;html=1;entryX=0;entryY=0.5;entryDx=0;entryDy=0;dashed=1;dashPattern=8 8;exitX=1;exitY=0.5;exitDx=0;exitDy=0;" parent="EyWW9Ja4iPk15_HqSt_m-2" source="HCVNk5icFxSqLN4fO-AM-1" target="HCVNk5icFxSqLN4fO-AM-11" edge="1">
          <mxGeometry relative="1" as="geometry">
            <mxPoint x="280" y="900" as="sourcePoint" />
            <mxPoint x="460" y="660" as="targetPoint" />
          </mxGeometry>
        </mxCell>
        <mxCell id="HCVNk5icFxSqLN4fO-AM-47" value="&amp;lt;&amp;lt;include&amp;gt;&amp;gt;" style="edgeLabel;html=1;align=center;verticalAlign=middle;resizable=0;points=[];" parent="HCVNk5icFxSqLN4fO-AM-46" vertex="1" connectable="0">
          <mxGeometry x="-0.0161" y="-1" relative="1" as="geometry">
            <mxPoint as="offset" />
          </mxGeometry>
        </mxCell>
        <mxCell id="HCVNk5icFxSqLN4fO-AM-48" style="rounded=0;orthogonalLoop=1;jettySize=auto;html=1;entryX=0;entryY=0.5;entryDx=0;entryDy=0;dashed=1;dashPattern=8 8;exitX=1;exitY=0.5;exitDx=0;exitDy=0;" parent="EyWW9Ja4iPk15_HqSt_m-2" source="HCVNk5icFxSqLN4fO-AM-1" target="HCVNk5icFxSqLN4fO-AM-12" edge="1">
          <mxGeometry relative="1" as="geometry">
            <mxPoint x="220" y="720" as="sourcePoint" />
            <mxPoint x="400" y="480" as="targetPoint" />
          </mxGeometry>
        </mxCell>
        <mxCell id="HCVNk5icFxSqLN4fO-AM-49" value="&amp;lt;&amp;lt;include&amp;gt;&amp;gt;" style="edgeLabel;html=1;align=center;verticalAlign=middle;resizable=0;points=[];" parent="HCVNk5icFxSqLN4fO-AM-48" vertex="1" connectable="0">
          <mxGeometry x="-0.0161" y="-1" relative="1" as="geometry">
            <mxPoint as="offset" />
          </mxGeometry>
        </mxCell>
        <mxCell id="HCVNk5icFxSqLN4fO-AM-50" style="rounded=0;orthogonalLoop=1;jettySize=auto;html=1;entryX=0;entryY=0.5;entryDx=0;entryDy=0;dashed=1;dashPattern=8 8;exitX=1;exitY=0.5;exitDx=0;exitDy=0;" parent="EyWW9Ja4iPk15_HqSt_m-2" source="HCVNk5icFxSqLN4fO-AM-1" target="HCVNk5icFxSqLN4fO-AM-13" edge="1">
          <mxGeometry relative="1" as="geometry">
            <mxPoint x="380" y="870" as="sourcePoint" />
            <mxPoint x="560" y="630" as="targetPoint" />
          </mxGeometry>
        </mxCell>
        <mxCell id="HCVNk5icFxSqLN4fO-AM-51" value="&amp;lt;&amp;lt;include&amp;gt;&amp;gt;" style="edgeLabel;html=1;align=center;verticalAlign=middle;resizable=0;points=[];" parent="HCVNk5icFxSqLN4fO-AM-50" vertex="1" connectable="0">
          <mxGeometry x="-0.0161" y="-1" relative="1" as="geometry">
            <mxPoint as="offset" />
          </mxGeometry>
        </mxCell>
        <mxCell id="HCVNk5icFxSqLN4fO-AM-52" style="rounded=0;orthogonalLoop=1;jettySize=auto;html=1;entryX=0;entryY=0.5;entryDx=0;entryDy=0;dashed=1;dashPattern=8 8;exitX=1;exitY=0.5;exitDx=0;exitDy=0;" parent="EyWW9Ja4iPk15_HqSt_m-2" source="HCVNk5icFxSqLN4fO-AM-1" target="HCVNk5icFxSqLN4fO-AM-14" edge="1">
          <mxGeometry relative="1" as="geometry">
            <mxPoint x="270" y="830" as="sourcePoint" />
            <mxPoint x="450" y="590" as="targetPoint" />
          </mxGeometry>
        </mxCell>
        <mxCell id="HCVNk5icFxSqLN4fO-AM-53" value="&amp;lt;&amp;lt;include&amp;gt;&amp;gt;" style="edgeLabel;html=1;align=center;verticalAlign=middle;resizable=0;points=[];" parent="HCVNk5icFxSqLN4fO-AM-52" vertex="1" connectable="0">
          <mxGeometry x="-0.0161" y="-1" relative="1" as="geometry">
            <mxPoint as="offset" />
          </mxGeometry>
        </mxCell>
        <mxCell id="HCVNk5icFxSqLN4fO-AM-54" style="rounded=0;orthogonalLoop=1;jettySize=auto;html=1;entryX=0.5;entryY=1;entryDx=0;entryDy=0;dashed=1;dashPattern=8 8;exitX=0.5;exitY=0;exitDx=0;exitDy=0;" parent="EyWW9Ja4iPk15_HqSt_m-2" source="HCVNk5icFxSqLN4fO-AM-16" target="HCVNk5icFxSqLN4fO-AM-15" edge="1">
          <mxGeometry relative="1" as="geometry">
            <mxPoint x="530" y="1079" as="sourcePoint" />
            <mxPoint x="690" y="1439" as="targetPoint" />
          </mxGeometry>
        </mxCell>
        <mxCell id="HCVNk5icFxSqLN4fO-AM-55" value="&amp;lt;&amp;lt;extends&amp;gt;&amp;gt;" style="edgeLabel;html=1;align=center;verticalAlign=middle;resizable=0;points=[];" parent="HCVNk5icFxSqLN4fO-AM-54" vertex="1" connectable="0">
          <mxGeometry x="-0.0161" y="-1" relative="1" as="geometry">
            <mxPoint as="offset" />
          </mxGeometry>
        </mxCell>
        <mxCell id="HCVNk5icFxSqLN4fO-AM-57" style="rounded=0;orthogonalLoop=1;jettySize=auto;html=1;entryX=0;entryY=0.5;entryDx=0;entryDy=0;dashed=1;dashPattern=8 8;exitX=1;exitY=0.5;exitDx=0;exitDy=0;" parent="EyWW9Ja4iPk15_HqSt_m-2" source="HCVNk5icFxSqLN4fO-AM-6" target="HCVNk5icFxSqLN4fO-AM-16" edge="1">
          <mxGeometry relative="1" as="geometry">
            <mxPoint x="-589.9999999999995" y="1260" as="sourcePoint" />
            <mxPoint x="-250" y="1530" as="targetPoint" />
          </mxGeometry>
        </mxCell>
        <mxCell id="HCVNk5icFxSqLN4fO-AM-58" value="&amp;lt;&amp;lt;include&amp;gt;&amp;gt;" style="edgeLabel;html=1;align=center;verticalAlign=middle;resizable=0;points=[];" parent="HCVNk5icFxSqLN4fO-AM-57" vertex="1" connectable="0">
          <mxGeometry x="-0.0161" y="-1" relative="1" as="geometry">
            <mxPoint as="offset" />
          </mxGeometry>
        </mxCell>
        <mxCell id="HCVNk5icFxSqLN4fO-AM-59" style="rounded=0;orthogonalLoop=1;jettySize=auto;html=1;entryX=0;entryY=0.5;entryDx=0;entryDy=0;dashed=1;dashPattern=8 8;exitX=1;exitY=0.5;exitDx=0;exitDy=0;" parent="EyWW9Ja4iPk15_HqSt_m-2" source="HCVNk5icFxSqLN4fO-AM-6" target="HCVNk5icFxSqLN4fO-AM-15" edge="1">
          <mxGeometry relative="1" as="geometry">
            <mxPoint x="-589.9999999999995" y="1260" as="sourcePoint" />
            <mxPoint x="-430" y="1170" as="targetPoint" />
          </mxGeometry>
        </mxCell>
        <mxCell id="HCVNk5icFxSqLN4fO-AM-60" value="&amp;lt;&amp;lt;include&amp;gt;&amp;gt;" style="edgeLabel;html=1;align=center;verticalAlign=middle;resizable=0;points=[];" parent="HCVNk5icFxSqLN4fO-AM-59" vertex="1" connectable="0">
          <mxGeometry x="-0.0161" y="-1" relative="1" as="geometry">
            <mxPoint as="offset" />
          </mxGeometry>
        </mxCell>
        <mxCell id="HCVNk5icFxSqLN4fO-AM-61" style="rounded=0;orthogonalLoop=1;jettySize=auto;html=1;entryX=0;entryY=0.5;entryDx=0;entryDy=0;dashed=1;dashPattern=8 8;exitX=1;exitY=0.5;exitDx=0;exitDy=0;" parent="EyWW9Ja4iPk15_HqSt_m-2" source="HCVNk5icFxSqLN4fO-AM-6" target="HCVNk5icFxSqLN4fO-AM-18" edge="1">
          <mxGeometry relative="1" as="geometry">
            <mxPoint x="-220" y="1630" as="sourcePoint" />
            <mxPoint x="-160" y="1540" as="targetPoint" />
          </mxGeometry>
        </mxCell>
        <mxCell id="HCVNk5icFxSqLN4fO-AM-62" value="&amp;lt;&amp;lt;include&amp;gt;&amp;gt;" style="edgeLabel;html=1;align=center;verticalAlign=middle;resizable=0;points=[];" parent="HCVNk5icFxSqLN4fO-AM-61" vertex="1" connectable="0">
          <mxGeometry x="-0.0161" y="-1" relative="1" as="geometry">
            <mxPoint as="offset" />
          </mxGeometry>
        </mxCell>
        <mxCell id="HCVNk5icFxSqLN4fO-AM-67" style="rounded=0;orthogonalLoop=1;jettySize=auto;html=1;entryX=0;entryY=0.5;entryDx=0;entryDy=0;dashed=1;dashPattern=8 8;exitX=1;exitY=0.5;exitDx=0;exitDy=0;" parent="EyWW9Ja4iPk15_HqSt_m-2" source="HCVNk5icFxSqLN4fO-AM-6" target="HCVNk5icFxSqLN4fO-AM-17" edge="1">
          <mxGeometry relative="1" as="geometry">
            <mxPoint x="-510" y="1540" as="sourcePoint" />
            <mxPoint x="-350" y="1780" as="targetPoint" />
          </mxGeometry>
        </mxCell>
        <mxCell id="HCVNk5icFxSqLN4fO-AM-68" value="&amp;lt;&amp;lt;include&amp;gt;&amp;gt;" style="edgeLabel;html=1;align=center;verticalAlign=middle;resizable=0;points=[];" parent="HCVNk5icFxSqLN4fO-AM-67" vertex="1" connectable="0">
          <mxGeometry x="-0.0161" y="-1" relative="1" as="geometry">
            <mxPoint as="offset" />
          </mxGeometry>
        </mxCell>
        <mxCell id="HCVNk5icFxSqLN4fO-AM-69" style="rounded=0;orthogonalLoop=1;jettySize=auto;html=1;entryX=0;entryY=0.5;entryDx=0;entryDy=0;dashed=1;dashPattern=8 8;exitX=1;exitY=0.5;exitDx=0;exitDy=0;" parent="EyWW9Ja4iPk15_HqSt_m-2" source="HCVNk5icFxSqLN4fO-AM-6" target="HCVNk5icFxSqLN4fO-AM-19" edge="1">
          <mxGeometry relative="1" as="geometry">
            <mxPoint x="-540" y="1460" as="sourcePoint" />
            <mxPoint x="-380" y="1700" as="targetPoint" />
          </mxGeometry>
        </mxCell>
        <mxCell id="HCVNk5icFxSqLN4fO-AM-70" value="&amp;lt;&amp;lt;include&amp;gt;&amp;gt;" style="edgeLabel;html=1;align=center;verticalAlign=middle;resizable=0;points=[];" parent="HCVNk5icFxSqLN4fO-AM-69" vertex="1" connectable="0">
          <mxGeometry x="-0.0161" y="-1" relative="1" as="geometry">
            <mxPoint as="offset" />
          </mxGeometry>
        </mxCell>
        <mxCell id="HCVNk5icFxSqLN4fO-AM-71" style="rounded=0;orthogonalLoop=1;jettySize=auto;html=1;entryX=0;entryY=0.5;entryDx=0;entryDy=0;dashed=1;dashPattern=8 8;exitX=1;exitY=0.5;exitDx=0;exitDy=0;" parent="EyWW9Ja4iPk15_HqSt_m-2" source="HCVNk5icFxSqLN4fO-AM-6" target="HCVNk5icFxSqLN4fO-AM-20" edge="1">
          <mxGeometry relative="1" as="geometry">
            <mxPoint x="-470" y="1680" as="sourcePoint" />
            <mxPoint x="-310" y="1920" as="targetPoint" />
          </mxGeometry>
        </mxCell>
        <mxCell id="HCVNk5icFxSqLN4fO-AM-72" value="&amp;lt;&amp;lt;include&amp;gt;&amp;gt;" style="edgeLabel;html=1;align=center;verticalAlign=middle;resizable=0;points=[];" parent="HCVNk5icFxSqLN4fO-AM-71" vertex="1" connectable="0">
          <mxGeometry x="-0.0161" y="-1" relative="1" as="geometry">
            <mxPoint as="offset" />
          </mxGeometry>
        </mxCell>
        <mxCell id="HCVNk5icFxSqLN4fO-AM-73" style="rounded=0;orthogonalLoop=1;jettySize=auto;html=1;entryX=0;entryY=0.5;entryDx=0;entryDy=0;dashed=1;dashPattern=8 8;exitX=1;exitY=0.5;exitDx=0;exitDy=0;" parent="EyWW9Ja4iPk15_HqSt_m-2" source="HCVNk5icFxSqLN4fO-AM-7" target="HCVNk5icFxSqLN4fO-AM-21" edge="1">
          <mxGeometry relative="1" as="geometry">
            <mxPoint x="-1474" y="1639" as="sourcePoint" />
            <mxPoint x="-1314" y="1939" as="targetPoint" />
          </mxGeometry>
        </mxCell>
        <mxCell id="HCVNk5icFxSqLN4fO-AM-74" value="&amp;lt;&amp;lt;include&amp;gt;&amp;gt;" style="edgeLabel;html=1;align=center;verticalAlign=middle;resizable=0;points=[];" parent="HCVNk5icFxSqLN4fO-AM-73" vertex="1" connectable="0">
          <mxGeometry x="-0.0161" y="-1" relative="1" as="geometry">
            <mxPoint as="offset" />
          </mxGeometry>
        </mxCell>
        <mxCell id="HCVNk5icFxSqLN4fO-AM-75" style="rounded=0;orthogonalLoop=1;jettySize=auto;html=1;entryX=0;entryY=0.5;entryDx=0;entryDy=0;dashed=1;dashPattern=8 8;exitX=1;exitY=0.5;exitDx=0;exitDy=0;" parent="EyWW9Ja4iPk15_HqSt_m-2" source="HCVNk5icFxSqLN4fO-AM-7" target="HCVNk5icFxSqLN4fO-AM-22" edge="1">
          <mxGeometry relative="1" as="geometry">
            <mxPoint x="40" y="1639" as="sourcePoint" />
            <mxPoint x="200" y="1939" as="targetPoint" />
          </mxGeometry>
        </mxCell>
        <mxCell id="HCVNk5icFxSqLN4fO-AM-76" value="&amp;lt;&amp;lt;include&amp;gt;&amp;gt;" style="edgeLabel;html=1;align=center;verticalAlign=middle;resizable=0;points=[];" parent="HCVNk5icFxSqLN4fO-AM-75" vertex="1" connectable="0">
          <mxGeometry x="-0.0161" y="-1" relative="1" as="geometry">
            <mxPoint as="offset" />
          </mxGeometry>
        </mxCell>
        <mxCell id="HCVNk5icFxSqLN4fO-AM-77" style="rounded=0;orthogonalLoop=1;jettySize=auto;html=1;entryX=0;entryY=0.5;entryDx=0;entryDy=0;dashed=1;dashPattern=8 8;exitX=1;exitY=0.5;exitDx=0;exitDy=0;" parent="EyWW9Ja4iPk15_HqSt_m-2" source="HCVNk5icFxSqLN4fO-AM-7" target="HCVNk5icFxSqLN4fO-AM-23" edge="1">
          <mxGeometry relative="1" as="geometry">
            <mxPoint x="950" y="1549" as="sourcePoint" />
            <mxPoint x="1110" y="1849" as="targetPoint" />
          </mxGeometry>
        </mxCell>
        <mxCell id="HCVNk5icFxSqLN4fO-AM-78" value="&amp;lt;&amp;lt;include&amp;gt;&amp;gt;" style="edgeLabel;html=1;align=center;verticalAlign=middle;resizable=0;points=[];" parent="HCVNk5icFxSqLN4fO-AM-77" vertex="1" connectable="0">
          <mxGeometry x="-0.0161" y="-1" relative="1" as="geometry">
            <mxPoint as="offset" />
          </mxGeometry>
        </mxCell>
        <mxCell id="HCVNk5icFxSqLN4fO-AM-79" style="rounded=0;orthogonalLoop=1;jettySize=auto;html=1;entryX=0;entryY=0.5;entryDx=0;entryDy=0;dashed=1;dashPattern=8 8;exitX=1;exitY=0.5;exitDx=0;exitDy=0;" parent="EyWW9Ja4iPk15_HqSt_m-2" source="HCVNk5icFxSqLN4fO-AM-7" target="HCVNk5icFxSqLN4fO-AM-24" edge="1">
          <mxGeometry relative="1" as="geometry">
            <mxPoint x="950" y="1669" as="sourcePoint" />
            <mxPoint x="1110" y="1969" as="targetPoint" />
          </mxGeometry>
        </mxCell>
        <mxCell id="HCVNk5icFxSqLN4fO-AM-80" value="&amp;lt;&amp;lt;include&amp;gt;&amp;gt;" style="edgeLabel;html=1;align=center;verticalAlign=middle;resizable=0;points=[];" parent="HCVNk5icFxSqLN4fO-AM-79" vertex="1" connectable="0">
          <mxGeometry x="-0.0161" y="-1" relative="1" as="geometry">
            <mxPoint as="offset" />
          </mxGeometry>
        </mxCell>
        <mxCell id="HCVNk5icFxSqLN4fO-AM-81" style="rounded=0;orthogonalLoop=1;jettySize=auto;html=1;entryX=0;entryY=0.5;entryDx=0;entryDy=0;dashed=1;dashPattern=8 8;exitX=1;exitY=0.5;exitDx=0;exitDy=0;" parent="EyWW9Ja4iPk15_HqSt_m-2" source="HCVNk5icFxSqLN4fO-AM-26" target="HCVNk5icFxSqLN4fO-AM-27" edge="1">
          <mxGeometry relative="1" as="geometry">
            <mxPoint x="980" y="-660" as="sourcePoint" />
            <mxPoint x="1140" y="-480" as="targetPoint" />
          </mxGeometry>
        </mxCell>
        <mxCell id="HCVNk5icFxSqLN4fO-AM-82" value="&amp;lt;&amp;lt;include&amp;gt;&amp;gt;" style="edgeLabel;html=1;align=center;verticalAlign=middle;resizable=0;points=[];" parent="HCVNk5icFxSqLN4fO-AM-81" vertex="1" connectable="0">
          <mxGeometry x="-0.0161" y="-1" relative="1" as="geometry">
            <mxPoint as="offset" />
          </mxGeometry>
        </mxCell>
        <mxCell id="HCVNk5icFxSqLN4fO-AM-83" style="rounded=0;orthogonalLoop=1;jettySize=auto;html=1;entryX=0;entryY=0.5;entryDx=0;entryDy=0;dashed=1;dashPattern=8 8;exitX=1;exitY=0.5;exitDx=0;exitDy=0;" parent="EyWW9Ja4iPk15_HqSt_m-2" source="HCVNk5icFxSqLN4fO-AM-26" target="HCVNk5icFxSqLN4fO-AM-28" edge="1">
          <mxGeometry relative="1" as="geometry">
            <mxPoint x="1030" y="-750" as="sourcePoint" />
            <mxPoint x="1190" y="-570" as="targetPoint" />
          </mxGeometry>
        </mxCell>
        <mxCell id="HCVNk5icFxSqLN4fO-AM-84" value="&amp;lt;&amp;lt;include&amp;gt;&amp;gt;" style="edgeLabel;html=1;align=center;verticalAlign=middle;resizable=0;points=[];" parent="HCVNk5icFxSqLN4fO-AM-83" vertex="1" connectable="0">
          <mxGeometry x="-0.0161" y="-1" relative="1" as="geometry">
            <mxPoint as="offset" />
          </mxGeometry>
        </mxCell>
        <mxCell id="HCVNk5icFxSqLN4fO-AM-85" style="rounded=0;orthogonalLoop=1;jettySize=auto;html=1;entryX=0;entryY=0.5;entryDx=0;entryDy=0;dashed=1;dashPattern=8 8;exitX=1;exitY=0.5;exitDx=0;exitDy=0;" parent="EyWW9Ja4iPk15_HqSt_m-2" source="HCVNk5icFxSqLN4fO-AM-26" target="HCVNk5icFxSqLN4fO-AM-29" edge="1">
          <mxGeometry relative="1" as="geometry">
            <mxPoint x="970" y="-620" as="sourcePoint" />
            <mxPoint x="1130" y="-440" as="targetPoint" />
          </mxGeometry>
        </mxCell>
        <mxCell id="HCVNk5icFxSqLN4fO-AM-86" value="&amp;lt;&amp;lt;include&amp;gt;&amp;gt;" style="edgeLabel;html=1;align=center;verticalAlign=middle;resizable=0;points=[];" parent="HCVNk5icFxSqLN4fO-AM-85" vertex="1" connectable="0">
          <mxGeometry x="-0.0161" y="-1" relative="1" as="geometry">
            <mxPoint as="offset" />
          </mxGeometry>
        </mxCell>
        <mxCell id="HCVNk5icFxSqLN4fO-AM-87" style="rounded=0;orthogonalLoop=1;jettySize=auto;html=1;entryX=0;entryY=0.5;entryDx=0;entryDy=0;dashed=1;dashPattern=8 8;exitX=1;exitY=0.5;exitDx=0;exitDy=0;" parent="EyWW9Ja4iPk15_HqSt_m-2" source="HCVNk5icFxSqLN4fO-AM-26" target="HCVNk5icFxSqLN4fO-AM-30" edge="1">
          <mxGeometry relative="1" as="geometry">
            <mxPoint x="840" y="-390" as="sourcePoint" />
            <mxPoint x="1000" y="-210" as="targetPoint" />
          </mxGeometry>
        </mxCell>
        <mxCell id="HCVNk5icFxSqLN4fO-AM-88" value="&amp;lt;&amp;lt;include&amp;gt;&amp;gt;" style="edgeLabel;html=1;align=center;verticalAlign=middle;resizable=0;points=[];" parent="HCVNk5icFxSqLN4fO-AM-87" vertex="1" connectable="0">
          <mxGeometry x="-0.0161" y="-1" relative="1" as="geometry">
            <mxPoint as="offset" />
          </mxGeometry>
        </mxCell>
        <mxCell id="HCVNk5icFxSqLN4fO-AM-89" style="rounded=0;orthogonalLoop=1;jettySize=auto;html=1;entryX=0;entryY=0.5;entryDx=0;entryDy=0;dashed=1;dashPattern=8 8;exitX=1;exitY=0.5;exitDx=0;exitDy=0;" parent="EyWW9Ja4iPk15_HqSt_m-2" source="HCVNk5icFxSqLN4fO-AM-30" target="HCVNk5icFxSqLN4fO-AM-32" edge="1">
          <mxGeometry relative="1" as="geometry">
            <mxPoint x="730" y="1000" as="sourcePoint" />
            <mxPoint x="890" y="1180" as="targetPoint" />
          </mxGeometry>
        </mxCell>
        <mxCell id="HCVNk5icFxSqLN4fO-AM-90" value="&amp;lt;&amp;lt;include&amp;gt;&amp;gt;" style="edgeLabel;html=1;align=center;verticalAlign=middle;resizable=0;points=[];" parent="HCVNk5icFxSqLN4fO-AM-89" vertex="1" connectable="0">
          <mxGeometry x="-0.0161" y="-1" relative="1" as="geometry">
            <mxPoint as="offset" />
          </mxGeometry>
        </mxCell>
        <mxCell id="HCVNk5icFxSqLN4fO-AM-91" style="rounded=0;orthogonalLoop=1;jettySize=auto;html=1;entryX=0;entryY=0.5;entryDx=0;entryDy=0;dashed=1;dashPattern=8 8;exitX=1;exitY=0.5;exitDx=0;exitDy=0;" parent="EyWW9Ja4iPk15_HqSt_m-2" source="HCVNk5icFxSqLN4fO-AM-30" target="HCVNk5icFxSqLN4fO-AM-33" edge="1">
          <mxGeometry relative="1" as="geometry">
            <mxPoint x="920" y="860" as="sourcePoint" />
            <mxPoint x="1080" y="1040" as="targetPoint" />
          </mxGeometry>
        </mxCell>
        <mxCell id="HCVNk5icFxSqLN4fO-AM-92" value="&amp;lt;&amp;lt;include&amp;gt;&amp;gt;" style="edgeLabel;html=1;align=center;verticalAlign=middle;resizable=0;points=[];" parent="HCVNk5icFxSqLN4fO-AM-91" vertex="1" connectable="0">
          <mxGeometry x="-0.0161" y="-1" relative="1" as="geometry">
            <mxPoint as="offset" />
          </mxGeometry>
        </mxCell>
        <mxCell id="HCVNk5icFxSqLN4fO-AM-93" style="rounded=0;orthogonalLoop=1;jettySize=auto;html=1;entryX=0;entryY=0.5;entryDx=0;entryDy=0;dashed=1;dashPattern=8 8;exitX=1;exitY=0.5;exitDx=0;exitDy=0;" parent="EyWW9Ja4iPk15_HqSt_m-2" source="HCVNk5icFxSqLN4fO-AM-30" target="HCVNk5icFxSqLN4fO-AM-31" edge="1">
          <mxGeometry relative="1" as="geometry">
            <mxPoint x="870" y="940" as="sourcePoint" />
            <mxPoint x="950" y="1060" as="targetPoint" />
          </mxGeometry>
        </mxCell>
        <mxCell id="HCVNk5icFxSqLN4fO-AM-94" value="&amp;lt;&amp;lt;include&amp;gt;&amp;gt;" style="edgeLabel;html=1;align=center;verticalAlign=middle;resizable=0;points=[];" parent="HCVNk5icFxSqLN4fO-AM-93" vertex="1" connectable="0">
          <mxGeometry x="-0.0161" y="-1" relative="1" as="geometry">
            <mxPoint as="offset" />
          </mxGeometry>
        </mxCell>
        <mxCell id="HCVNk5icFxSqLN4fO-AM-95" style="rounded=0;orthogonalLoop=1;jettySize=auto;html=1;entryX=0;entryY=0.5;entryDx=0;entryDy=0;dashed=1;dashPattern=8 8;exitX=1;exitY=0.5;exitDx=0;exitDy=0;" parent="EyWW9Ja4iPk15_HqSt_m-2" source="HCVNk5icFxSqLN4fO-AM-34" target="HCVNk5icFxSqLN4fO-AM-35" edge="1">
          <mxGeometry relative="1" as="geometry">
            <mxPoint x="830" y="1361" as="sourcePoint" />
            <mxPoint x="910" y="1481" as="targetPoint" />
          </mxGeometry>
        </mxCell>
        <mxCell id="HCVNk5icFxSqLN4fO-AM-96" value="&amp;lt;&amp;lt;include&amp;gt;&amp;gt;" style="edgeLabel;html=1;align=center;verticalAlign=middle;resizable=0;points=[];" parent="HCVNk5icFxSqLN4fO-AM-95" vertex="1" connectable="0">
          <mxGeometry x="-0.0161" y="-1" relative="1" as="geometry">
            <mxPoint as="offset" />
          </mxGeometry>
        </mxCell>
        <mxCell id="HCVNk5icFxSqLN4fO-AM-97" style="rounded=0;orthogonalLoop=1;jettySize=auto;html=1;entryX=0;entryY=0.5;entryDx=0;entryDy=0;dashed=1;dashPattern=8 8;exitX=1;exitY=0.5;exitDx=0;exitDy=0;" parent="EyWW9Ja4iPk15_HqSt_m-2" source="HCVNk5icFxSqLN4fO-AM-34" target="HCVNk5icFxSqLN4fO-AM-36" edge="1">
          <mxGeometry relative="1" as="geometry">
            <mxPoint x="880" y="1261" as="sourcePoint" />
            <mxPoint x="960" y="1381" as="targetPoint" />
          </mxGeometry>
        </mxCell>
        <mxCell id="HCVNk5icFxSqLN4fO-AM-98" value="&amp;lt;&amp;lt;include&amp;gt;&amp;gt;" style="edgeLabel;html=1;align=center;verticalAlign=middle;resizable=0;points=[];" parent="HCVNk5icFxSqLN4fO-AM-97" vertex="1" connectable="0">
          <mxGeometry x="-0.0161" y="-1" relative="1" as="geometry">
            <mxPoint as="offset" />
          </mxGeometry>
        </mxCell>
        <mxCell id="HCVNk5icFxSqLN4fO-AM-99" style="rounded=0;orthogonalLoop=1;jettySize=auto;html=1;entryX=0;entryY=0.5;entryDx=0;entryDy=0;dashed=1;dashPattern=8 8;exitX=1;exitY=0.5;exitDx=0;exitDy=0;" parent="EyWW9Ja4iPk15_HqSt_m-2" source="HCVNk5icFxSqLN4fO-AM-26" target="HCVNk5icFxSqLN4fO-AM-34" edge="1">
          <mxGeometry relative="1" as="geometry">
            <mxPoint x="1140" y="-189" as="sourcePoint" />
            <mxPoint x="1220" y="-69" as="targetPoint" />
          </mxGeometry>
        </mxCell>
        <mxCell id="HCVNk5icFxSqLN4fO-AM-100" value="&amp;lt;&amp;lt;include&amp;gt;&amp;gt;" style="edgeLabel;html=1;align=center;verticalAlign=middle;resizable=0;points=[];" parent="HCVNk5icFxSqLN4fO-AM-99" vertex="1" connectable="0">
          <mxGeometry x="-0.0161" y="-1" relative="1" as="geometry">
            <mxPoint as="offset" />
          </mxGeometry>
        </mxCell>
        <mxCell id="HCVNk5icFxSqLN4fO-AM-101" style="rounded=0;orthogonalLoop=1;jettySize=auto;html=1;entryX=0;entryY=0.5;entryDx=0;entryDy=0;dashed=1;dashPattern=8 8;exitX=1;exitY=0.5;exitDx=0;exitDy=0;" parent="EyWW9Ja4iPk15_HqSt_m-2" source="HCVNk5icFxSqLN4fO-AM-26" target="HCVNk5icFxSqLN4fO-AM-38" edge="1">
          <mxGeometry relative="1" as="geometry">
            <mxPoint x="1010" y="-19" as="sourcePoint" />
            <mxPoint x="1090" y="101" as="targetPoint" />
          </mxGeometry>
        </mxCell>
        <mxCell id="HCVNk5icFxSqLN4fO-AM-102" value="&amp;lt;&amp;lt;include&amp;gt;&amp;gt;" style="edgeLabel;html=1;align=center;verticalAlign=middle;resizable=0;points=[];" parent="HCVNk5icFxSqLN4fO-AM-101" vertex="1" connectable="0">
          <mxGeometry x="-0.0161" y="-1" relative="1" as="geometry">
            <mxPoint as="offset" />
          </mxGeometry>
        </mxCell>
      </root>
    </mxGraphModel>
  </diagram>
</mxfile>
